<svg xmlns="http://www.w3.org/2000/svg" width="1024" height="1024" viewBox="0 0 1024 1024">
  <defs>
    <linearGradient id="bgGradient" x1="0%" y1="0%" x2="100%" y2="100%">
      <stop offset="0%" style="stop-color:#00d4ff"/>
      <stop offset="100%" style="stop-color:#ff00aa"/>
    </linearGradient>
  </defs>

  <!-- Background rounded square -->
  <rect x="0" y="0" width="1024" height="1024" rx="228" ry="228" fill="url(#bgGradient)"/>

  <!-- Music note icon (double note) - scaled and centered -->
  <g transform="translate(200, 180) scale(26)">
    <path d="M9 18V5l12-2v13M9 18c0 1.66-1.34 3-3 3s-3-1.34-3-3 1.34-3 3-3 3 1.34 3 3zm12-2c0 1.66-1.34 3-3 3s-3-1.34-3-3 1.34-3 3-3 3 1.34 3 3z"
          fill="white"
          stroke="none"/>
  </g>
</svg>
